<svg xmlns="http://www.w3.org/2000/svg" viewBox="0 0 56.47 117.78"><defs><style>.cls-1{fill:#a7a7a8;}</style></defs><title>garant-chemod</title><g id="Слой_2" data-name="Слой 2"><g id="Layer_1" data-name="Layer 1"><path class="cls-1" d="M47.72,111.72h-39A8.26,8.26,0,0,1,.5,103.46V47.11a8.26,8.26,0,0,1,8.25-8.25h39A8.26,8.26,0,0,1,56,47.11v56.35A8.26,8.26,0,0,1,47.72,111.72Zm-39-72.2a7.6,7.6,0,0,0-7.59,7.59v56.35a7.6,7.6,0,0,0,7.59,7.59h39a7.6,7.6,0,0,0,7.59-7.59V47.11a7.6,7.6,0,0,0-7.59-7.59Z"/><path class="cls-1" d="M47.72,112.22h-39A8.77,8.77,0,0,1,0,103.46V47.11a8.77,8.77,0,0,1,8.75-8.75h39a8.77,8.77,0,0,1,8.75,8.75v56.35A8.77,8.77,0,0,1,47.72,112.22ZM8.75,40a7.1,7.1,0,0,0-7.09,7.09v56.35a7.1,7.1,0,0,0,7.09,7.09h39a7.1,7.1,0,0,0,7.09-7.09V47.11A7.1,7.1,0,0,0,47.72,40Z"/><rect class="cls-1" x="19.98" y="2.42" width="0.99" height="36.76"/><rect class="cls-1" x="33.74" y="2.42" width="0.99" height="36.76"/><rect class="cls-1" x="18.44" width="17.72" height="2.86" rx="0.59" ry="0.59"/><path class="cls-1" d="M8.54,112.38a2.2,2.2,0,1,1-2.2,2.2,2.21,2.21,0,0,1,2.2-2.2m0-1a3.19,3.19,0,1,0,3.19,3.19,3.19,3.19,0,0,0-3.19-3.19Z"/><path class="cls-1" d="M49.24,112.38a2.2,2.2,0,1,1-2.2,2.2,2.21,2.21,0,0,1,2.2-2.2m0-1a3.19,3.19,0,1,0,3.19,3.19,3.19,3.19,0,0,0-3.19-3.19Z"/></g></g></svg>