<?xml version="1.0" encoding="utf-8"?>
<!-- Generator: Adobe Illustrator 23.0.0, SVG Export Plug-In . SVG Version: 6.00 Build 0)  -->
<svg version="1.1" id="Слой_1" xmlns="http://www.w3.org/2000/svg" xmlns:xlink="http://www.w3.org/1999/xlink" x="0px" y="0px"
	 viewBox="0 0 200 200" style="enable-background:new 0 0 200 200;" xml:space="preserve">
<style type="text/css">
	.st0{fill:#A8A8A8;}
	.st1{fill:#FFFFFF;}
</style>
<g>
	<g>
		<circle class="st0" cx="100" cy="100" r="100"/>
	</g>
	<path class="st1" d="M100.91,56c-28.04,0-50.86,19.96-50.86,44.5c0,10.06,3.84,19.71,10.89,27.46l-10.12,11.79
		c-0.81,0.94-1,2.27-0.48,3.39c0.51,1.13,1.65,1.86,2.89,1.86h47.68c28.04,0,50.86-19.96,50.86-44.5S128.96,56,100.91,56z
		 M75.49,106.86c-3.51,0-6.36-2.85-6.36-6.36s2.85-6.36,6.36-6.36c3.51,0,6.36,2.85,6.36,6.36S78.99,106.86,75.49,106.86z
		 M100.91,106.86c-3.51,0-6.36-2.85-6.36-6.36s2.85-6.36,6.36-6.36s6.36,2.85,6.36,6.36S104.42,106.86,100.91,106.86z
		 M126.34,106.86c-3.51,0-6.36-2.85-6.36-6.36s2.85-6.36,6.36-6.36s6.36,2.85,6.36,6.36S129.85,106.86,126.34,106.86z"/>
</g>
</svg>
