<?xml version="1.0" encoding="utf-8"?>
<!-- Generator: Adobe Illustrator 21.1.0, SVG Export Plug-In . SVG Version: 6.00 Build 0)  -->
<svg version="1.1" id="Layer_1" xmlns="http://www.w3.org/2000/svg" xmlns:xlink="http://www.w3.org/1999/xlink" x="0px" y="0px"
	 viewBox="0 0 124 125" style="enable-background:new 0 0 124 125;" xml:space="preserve">
<style type="text/css">
	.st0{fill:#A8A8A8;}
	.st1{fill:#FFFFFF;}
</style>
<circle class="st0" cx="62" cy="62" r="62"/>
<path class="st1" d="M50,69c7.9,9.5,27.1,18.7,31.7,16.6c4.6-2.1,5.6-6.5,5.4-8.5s-10.7-8.3-13.4-9.5s-5.7,2.6-7.2,4.3
	c-1.5,1.6-7.4-3.2-9.9-5.7c0,0-6.6-7.4-5.1-9c1.5-1.6,5.3-4.8,4-7.4s-8-12.9-10.1-13c-2.1-0.1-6.4,1.1-8.3,5.8
	c-1.9,4.7,7,22.7,16.9,30.1"/>
</svg>
