<svg xmlns="http://www.w3.org/2000/svg" viewBox="0 0 119.78 119.78"><defs><style>.cls-1{fill:#a7a7a8}</style></defs><g id="Слой_2" data-name="Слой 2"><g id="Layer_1" data-name="Layer 1"><path class="cls-1" d="M10 24V6a2 2 0 012-2h20a2 2 0 012 2v18zm26 4a2 2 0 002-2V6a6 6 0 00-6-6H12a6 6 0 00-6 6v20a2 2 0 002 2z"/><path class="cls-1" d="M4 75.86V27.95h35.93v47.91zm35.93 4a4 4 0 004-4V27.95a4 4 0 00-4-4H4a4 4 0 00-4 4v47.91a4 4 0 004 4z"/><path class="cls-1" d="M16 79.85h12v6H16zm12 10a4 4 0 004-4v-8a2 2 0 00-2-2H14a2 2 0 00-2 2v8a4 4 0 004 4zm45.86-53.92h39.93a2 2 0 002-2V2a2 2 0 00-2-2H73.86a2 2 0 00-2 2v31.94a2 2 0 002 1.99zm2-31.93h35.93v27.94H75.86z"/><path class="cls-1" d="M71.87 75.86V35.93h43.92v39.93zm43.92 4a4 4 0 004-4V35.93a4 4 0 00-4-4H71.87a4 4 0 00-4 4v39.93a4 4 0 004 4z"/><path class="cls-1" d="M87.84 79.85h12v6h-12zm12 10a4 4 0 004-4v-8a2 2 0 00-2-2h-16a2 2 0 00-2 2v8a4 4 0 004 4zM81.85 24h8a2 2 0 002-2v-8a2 2 0 00-2-2h-8a2 2 0 00-2 2v8a2 2 0 002 2zm2-4v-4h4v4zm13.97 4h8a2 2 0 002-2v-8a2 2 0 00-2-2h-8a2 2 0 00-2 2v8a2 2 0 002 2zm2-4v-4h4v4z"/><path class="cls-1" d="M27.95 95.87v-8a2 2 0 00-2-2H18a2 2 0 00-2 2v8a23.94 23.94 0 0024 23.9h35.86a24 24 0 0024-23.93v-8a2 2 0 00-2-2h-8a2 2 0 00-2 2v8a12 12 0 01-12 12H39.93a12 12 0 01-11.98-11.97zm67.87-6v6a20 20 0 01-20 19.94H39.93A19.94 19.94 0 0120 95.87v-6h4v6a15.94 15.94 0 0016 15.92h35.86a16 16 0 0016-15.94v-6z"/></g></g></svg>