<svg xmlns="http://www.w3.org/2000/svg" viewBox="0 0 28.59 28.59"><defs><style>.cls-1{fill:none;stroke:#9e9e9e;stroke-miterlimit:10;stroke-width:0.5px;}.cls-2{fill:#8c8c8c;}</style></defs><title>day-info</title><g id="Слой_2" data-name="Слой 2"><g id="Layer_1" data-name="Layer 1"><circle class="cls-1" cx="14.3" cy="14.3" r="14.05"/><path class="cls-2" d="M19.54,10.39a.25.25,0,0,0-.35,0l-2,2a3.51,3.51,0,0,0-5,5l-1.83,1.83a.25.25,0,1,0,.35.35l1.83-1.83a3.5,3.5,0,0,0,2.28.86A3.53,3.53,0,0,0,18.43,15a3.5,3.5,0,0,0-.86-2.28l2-2A.25.25,0,0,0,19.54,10.39ZM11.87,15a3,3,0,0,1,5-2.28L12.62,17A3,3,0,0,1,11.87,15Zm6.06,0a3,3,0,0,1-3,3A3,3,0,0,1,13,17.31l4.25-4.25A3,3,0,0,1,17.93,15Z"/><path class="cls-2" d="M14.8,10.27a.25.25,0,0,0,.25-.25V8.64a.25.25,0,0,0-.5,0V10A.25.25,0,0,0,14.8,10.27Z"/><path class="cls-2" d="M9.66,14.89H8.28a.25.25,0,0,0,0,.5H9.66a.25.25,0,1,0,0-.5Z"/><path class="cls-2" d="M10.68,11.33a.25.25,0,0,0,.17.07A.25.25,0,0,0,11,11L10,10a.25.25,0,1,0-.34.37Z"/></g></g></svg>