<svg xmlns="http://www.w3.org/2000/svg" viewBox="0 0 28.59 28.59"><defs><style>.cls-1{fill:none;stroke:#9e9e9e;stroke-miterlimit:10;stroke-width:0.5px;}.cls-2{fill:#8c8c8c;}</style></defs><title>hand-info</title><g id="Слой_2" data-name="Слой 2"><g id="Layer_1" data-name="Layer 1"><circle class="cls-1" cx="14.3" cy="14.3" r="14.05"/><path class="cls-2" d="M18,10.63a.22.22,0,0,0-.25-.23,1.5,1.5,0,0,0-.93.47L15.47,12.3l-4.69-.39-.6.65L13.85,14,13,15a.75.75,0,0,0-.18.32l-1.57-.25-.48.52,1.77.68L13.31,18l.48-.52-.37-1.55a.75.75,0,0,0,.3-.2l.9-1,1.75,3.55.6-.65L16.25,13l1.32-1.42a1.5,1.5,0,0,0,.4-1"/></g></g></svg>