<svg xmlns="http://www.w3.org/2000/svg" viewBox="0 0 28.59 28.59"><defs><style>.cls-1{fill:none;stroke:#9e9e9e;stroke-miterlimit:10;stroke-width:0.5px;}.cls-2{fill:#8c8c8c;}</style></defs><title>smena-info</title><g id="Слой_2" data-name="Слой 2"><g id="Layer_1" data-name="Layer 1"><circle class="cls-1" cx="14.3" cy="14.3" r="14.05"/><path class="cls-2" d="M18.38,8.79H9.83A.82.82,0,0,0,9,9.6v9a.82.82,0,0,0,.82.82h8.55a.82.82,0,0,0,.82-.82v-9A.82.82,0,0,0,18.38,8.79Zm-8.55.4h1.53c.44.86,1.55,3,2.81,3s2.15-1.91,2.61-2.82l.07-.15h1.53a.41.41,0,0,1,.41.41v4H16.91a.2.2,0,0,0-.2.2v3a.2.2,0,0,0,.12.18l2,.9v.77a.41.41,0,0,1-.41.41H9.83a.41.41,0,0,1-.41-.41v-9A.41.41,0,0,1,9.83,9.19Zm4.34,2.57c-.67,0-1.46-.86-2.36-2.57H16.4C16,10,15.11,11.76,14.17,11.76Zm3.28,2.84H18.8v2.81l-1.68-.77V14H18.8v.21H17.45a.2.2,0,0,0,0,.4Z"/><path class="cls-2" d="M12.43,11.94a.2.2,0,0,0,.28,0,.2.2,0,0,0,0-.29c-.14-.15-.27-.31-.41-.49a.2.2,0,0,0-.36.1.2.2,0,0,0,0,.15C12.14,11.61,12.29,11.78,12.43,11.94Z"/><path class="cls-2" d="M15.36,12.39a.2.2,0,0,0,.13,0A7.35,7.35,0,0,0,17,10.26l.2-.36a.2.2,0,1,0-.35-.2l-.2.36a7,7,0,0,1-1.42,2,.2.2,0,0,0,.13.35Z"/></g></g></svg>