<svg xmlns="http://www.w3.org/2000/svg" viewBox="0 0 28.59 28.59"><defs><style>.cls-1{fill:none;stroke:#9e9e9e;stroke-miterlimit:10;stroke-width:0.5px;}.cls-2{fill:#8c8c8c;}</style></defs><title>usb-info</title><g id="Слой_2" data-name="Слой 2"><g id="Layer_1" data-name="Layer 1"><circle class="cls-1" cx="14.3" cy="14.3" r="14.05"/><path class="cls-2" d="M10.7,11.59V10.27a.15.15,0,0,1,.15-.15h1.47a.15.15,0,0,1,.15.15v1.32Zm1.91.29a.15.15,0,0,0,.15-.15V10.27a.44.44,0,0,0-.44-.44H10.84a.44.44,0,0,0-.44.44v1.47a.15.15,0,0,0,.15.15Z"/><path class="cls-2" d="M10.26,15.41V11.89H12.9v3.52Zm2.64.29a.29.29,0,0,0,.29-.29V11.89a.29.29,0,0,0-.29-.29H10.26a.29.29,0,0,0-.29.29v3.52a.29.29,0,0,0,.29.29Z"/><path class="cls-2" d="M11.14,15.7H12v.44h-.88Zm.88.73a.29.29,0,0,0,.29-.29v-.59a.15.15,0,0,0-.15-.15H11a.15.15,0,0,0-.15.15v.59a.29.29,0,0,0,.29.29Z"/><path class="cls-2" d="M15.39,12.47h2.93a.15.15,0,0,0,.15-.15V10a.15.15,0,0,0-.15-.15H15.39a.15.15,0,0,0-.15.15v2.35A.15.15,0,0,0,15.39,12.47Zm.15-2.35h2.64v2.05H15.54Z"/><path class="cls-2" d="M15.25,15.41V12.47h3.23v2.93Zm3.23.29a.29.29,0,0,0,.29-.29V12.47a.29.29,0,0,0-.29-.29H15.25a.29.29,0,0,0-.29.29v2.93a.29.29,0,0,0,.29.29Z"/><path class="cls-2" d="M16.42,15.7h.88v.44h-.88Zm.88.73a.29.29,0,0,0,.29-.29v-.59a.15.15,0,0,0-.15-.15H16.27a.15.15,0,0,0-.15.15v.59a.29.29,0,0,0,.29.29Z"/><path class="cls-2" d="M16,11.59h.59a.15.15,0,0,0,.15-.15v-.59a.15.15,0,0,0-.15-.15H16a.15.15,0,0,0-.15.15v.59A.15.15,0,0,0,16,11.59Zm.15-.29V11h.29v.29Z"/><path class="cls-2" d="M17.15,11.59h.59a.15.15,0,0,0,.15-.15v-.59a.15.15,0,0,0-.15-.15h-.59a.15.15,0,0,0-.15.15v.59A.15.15,0,0,0,17.15,11.59Zm.15-.29V11h.29v.29Z"/><path class="cls-2" d="M12,16.88v-.59a.15.15,0,0,0-.15-.15h-.59a.15.15,0,0,0-.15.15v.59a1.76,1.76,0,0,0,1.76,1.76h2.64a1.76,1.76,0,0,0,1.76-1.76v-.59a.15.15,0,0,0-.15-.15h-.59a.15.15,0,0,0-.15.15v.59a.88.88,0,0,1-.88.88H12.9A.88.88,0,0,1,12,16.88Zm5-.44v.44a1.47,1.47,0,0,1-1.47,1.47H12.9a1.47,1.47,0,0,1-1.47-1.46v-.44h.29v.44A1.17,1.17,0,0,0,12.9,18h2.64a1.17,1.17,0,0,0,1.17-1.17v-.44Z"/></g></g></svg>