<?xml version="1.0" encoding="utf-8"?>
<!-- Generator: Adobe Illustrator 23.0.0, SVG Export Plug-In . SVG Version: 6.00 Build 0)  -->
<svg version="1.1" id="Слой_1" xmlns="http://www.w3.org/2000/svg" xmlns:xlink="http://www.w3.org/1999/xlink" x="0px" y="0px"
	 viewBox="0 0 479 110" style="enable-background:new 0 0 479 110;" xml:space="preserve">
<style type="text/css">
	.st0{fill:none;}
	.st1{fill:#231F20;}
	.st2{fill:#FF5F00;}
	.st3{fill:#EB001B;}
	.st4{fill:#F79E1B;}
</style>
<title>mc_hrz_rgb_pos</title>
<g id="Layer_2">
	<g id="Layer_1-2">
		<rect y="0" class="st0" width="479" height="110"/>
		<path class="st1" d="M216.4,67.1v-15c0-5.7-3.6-9.5-9.4-9.5c-3.4-0.2-6.6,1.4-8.4,4.3c-1.7-2.8-4.7-4.4-7.9-4.3
			c-2.8-0.1-5.5,1.2-7,3.6v-3h-5.2v24h5.3V53.8c0-4.2,2.3-6.4,5.9-6.4s5.2,2.3,5.2,6.3v13.3h5.2V53.8c0-4.2,2.4-6.4,5.9-6.4
			s5.3,2.3,5.3,6.3v13.3H216.4z M294.2,43.2h-8.5v-7.3h-5.3v7.3h-4.9v4.8h4.9v10.9c0,5.6,2.1,8.9,8.3,8.9c2.3,0,4.6-0.6,6.5-1.8
			l-1.5-4.5c-1.4,0.8-3,1.3-4.6,1.3c-2.6,0-3.5-1.6-3.5-4V47.9h8.5L294.2,43.2z M338.6,42.6c-2.6-0.1-5,1.3-6.3,3.5v-2.9h-5.2v23.9
			h5.2V53.7c0-4,1.7-6.2,5.1-6.2c1.1,0,2.2,0.2,3.3,0.6l1.6-4.9C341.2,42.8,339.9,42.6,338.6,42.6z M271.5,45.1
			c-2.9-1.8-6.3-2.6-9.8-2.5c-6.1,0-10,2.9-10,7.7c0,3.9,2.9,6.3,8.3,7.1l2.5,0.3c2.9,0.4,4.2,1.2,4.2,2.5c0,1.8-1.9,2.9-5.5,2.9
			c-2.9,0.1-5.7-0.8-8-2.5l-2.4,4c3,2.1,6.7,3.2,10.4,3.1c6.9,0,10.9-3.3,10.9-7.8c0-4.2-3.2-6.4-8.4-7.2l-2.5-0.3
			c-2.3-0.3-4.1-0.8-4.1-2.3c0-1.8,1.7-2.8,4.6-2.8c2.6,0,5.2,0.7,7.5,2L271.5,45.1z M411,42.6c-2.6-0.1-5,1.3-6.3,3.5v-2.9h-5.2
			v23.9h5.2V53.7c0-4,1.7-6.2,5.1-6.2c1.1,0,2.2,0.2,3.3,0.6l1.6-4.9C413.5,42.8,412.3,42.6,411,42.6z M343.9,55.1
			c0,7.3,5.1,12.6,12.8,12.6c3.1,0.2,6.2-0.9,8.6-2.9l-2.5-4.2c-1.8,1.4-4,2.1-6.3,2.2c-4.2,0-7.2-3.1-7.2-7.7s3.1-7.6,7.2-7.7
			c2.3,0,4.5,0.8,6.3,2.2l2.5-4.2c-2.4-2-5.5-3-8.6-2.9C349,42.6,343.9,47.9,343.9,55.1L343.9,55.1z M392.7,55.1v-12h-5.2v2.9
			c-1.8-2.3-4.6-3.6-7.6-3.5c-6.7,0-12,5.3-12,12.6s5.3,12.6,12,12.6c2.9,0.1,5.8-1.2,7.6-3.5v2.9h5.2V55.1z M373.3,55.1
			c0-4.2,2.8-7.7,7.3-7.7c4.3,0,7.2,3.3,7.2,7.7s-2.9,7.7-7.2,7.7C376.1,62.8,373.3,59.3,373.3,55.1z M310.5,42.6
			c-7,0-11.9,5.1-11.9,12.6c0,7.6,5.1,12.6,12.3,12.6c3.6,0.1,7.1-1.1,9.8-3.4l-2.5-3.9c-2,1.6-4.5,2.5-7,2.5
			c-3.4,0-6.4-1.5-7.2-5.9h17.8c0-0.7,0.1-1.3,0.1-2C321.8,47.7,317.1,42.6,310.5,42.6L310.5,42.6z M310.4,47.2
			c3.4,0,5.5,2.1,6.1,5.8H304C304.5,49.6,306.6,47.2,310.4,47.2L310.4,47.2z M441,55.1V33.6h-5.2v12.5c-1.8-2.3-4.6-3.6-7.6-3.5
			c-6.7,0-12,5.3-12,12.6s5.3,12.6,12,12.6c2.9,0.1,5.8-1.2,7.6-3.5v2.9h5.2V55.1z M447.1,64.9c0.2,0,0.4,0,0.6,0.1
			c0.2,0.1,0.3,0.2,0.5,0.3c0.1,0.1,0.3,0.3,0.3,0.5c0.2,0.4,0.2,0.8,0,1.2c-0.1,0.2-0.2,0.3-0.3,0.5c-0.1,0.1-0.3,0.3-0.5,0.3
			c-0.2,0.1-0.4,0.1-0.6,0.1c-0.6,0-1.2-0.4-1.4-0.9c-0.2-0.4-0.2-0.8,0-1.2c0.2-0.4,0.5-0.7,0.8-0.8
			C446.7,64.9,446.9,64.9,447.1,64.9L447.1,64.9z M447.1,67.6c0.2,0,0.3,0,0.5-0.1c0.1-0.1,0.3-0.1,0.4-0.3c0.5-0.5,0.5-1.2,0-1.7
			c-0.1-0.1-0.2-0.2-0.4-0.3c-0.1-0.1-0.3-0.1-0.5-0.1c-0.2,0-0.3,0-0.5,0.1c-0.6,0.3-0.9,1-0.6,1.6c0.1,0.1,0.1,0.3,0.2,0.4
			c0.1,0.1,0.2,0.2,0.4,0.3C446.8,67.6,446.9,67.6,447.1,67.6L447.1,67.6z M447.2,65.7c0.1,0,0.3,0,0.4,0.1c0.1,0.1,0.2,0.2,0.1,0.3
			c0,0.1,0,0.2-0.1,0.3c-0.1,0.1-0.2,0.1-0.3,0.1l0.5,0.5h-0.4l-0.4-0.5h-0.1v0.5h-0.3v-1.4L447.2,65.7z M446.8,66v0.4h0.4
			c0.1,0,0.1,0,0.2,0c0,0,0.1-0.1,0.1-0.1c0-0.1,0-0.1-0.1-0.1c-0.1,0-0.1,0-0.2,0L446.8,66z M421.6,55.1c0-4.2,2.8-7.7,7.3-7.7
			c4.3,0,7.2,3.3,7.2,7.7s-2.9,7.7-7.2,7.7C424.4,62.8,421.6,59.3,421.6,55.1z M245.7,55.1v-12h-5.2v2.9c-1.8-2.3-4.6-3.6-7.5-3.5
			c-6.7,0-12,5.3-12,12.6s5.3,12.6,12,12.6c2.9,0.1,5.8-1.2,7.6-3.5v2.9h5.2L245.7,55.1z M226.4,55.1c0-4.2,2.8-7.7,7.3-7.7
			c4.3,0,7.2,3.3,7.2,7.7s-2.9,7.7-7.2,7.7C229.1,62.8,226.4,59.4,226.4,55.1L226.4,55.1z"/>
		<g id="_Group_">
			<rect x="80.5" y="26.7" class="st2" width="31.5" height="56.6"/>
			<path id="_Path_" class="st3" d="M82.5,55c0-11,5.1-21.5,13.8-28.3c-15.6-12.3-38.3-9.6-50.5,6.1S36.1,71,51.7,83.3
				c13.1,10.3,31.4,10.3,44.5,0C87.5,76.5,82.4,66,82.5,55z"/>
			<path class="st4" d="M154.5,55c0,19.9-16.1,36-36,36c-8.1,0-15.9-2.7-22.2-7.7c15.6-12.3,18.3-34.9,6.1-50.5
				c-1.8-2.3-3.8-4.3-6.1-6.1c15.6-12.3,38.3-9.6,50.6,6.1C151.8,39.1,154.5,46.9,154.5,55z"/>
			<path class="st4" d="M151,77.3v-1.2h0.5v-0.2h-1.2v0.2h0.5v1.2L151,77.3z M153.3,77.3v-1.4H153l-0.4,1l-0.4-1h-0.4v1.4h0.2v-1.1
				l0.4,0.9h0.3l0.4-0.9v1.1L153.3,77.3z"/>
		</g>
	</g>
</g>
</svg>
