<?xml version="1.0" encoding="utf-8"?>
<!-- Generator: Adobe Illustrator 23.0.0, SVG Export Plug-In . SVG Version: 6.00 Build 0)  -->
<svg version="1.1" id="Слой_1" xmlns="http://www.w3.org/2000/svg" xmlns:xlink="http://www.w3.org/1999/xlink" x="0px" y="0px"
	 viewBox="0 0 242.5 110" style="enable-background:new 0 0 242.5 110;" xml:space="preserve">
<style type="text/css">
	.st0{fill-rule:evenodd;clip-rule:evenodd;fill:#444A67;}
</style>
<title>mc_hrz_rgb_pos</title>
<polygon class="st0" points="84.8,80.5 100.4,29.2 114.3,29.2 98.7,80.5 84.8,80.5 "/>
<path class="st0" d="M78.6,29.2L66.1,50.9c-3.2,5.7-5,8.6-5.9,12.2H60c0.2-4.6-0.4-10.2-0.5-13.3l-1.4-20.6H34.7l-0.2,1.4
	c6,0,9.6,3,10.6,9.2l4.6,40.8H64l29.1-51.3H78.6L78.6,29.2z"/>
<path class="st0" d="M186.7,80.5l-0.4-7.6l-17.4,0l-3.6,7.7h-15.1l27.4-51.3h18.5l4.6,51.3H186.7L186.7,80.5z M185.1,50.2
	c-0.2-3.8-0.3-8.9,0-12.1h-0.2c-0.8,2.6-4.5,10.2-6.1,14l-5.2,11.3h12.2L185.1,50.2L185.1,50.2z"/>
<path class="st0" d="M128.9,82c-9.8,0-16.3-3.1-21-5.9l6.6-10.1c4.2,2.3,7.5,5,15,5c2.4,0,4.8-0.6,6.1-2.9c1.9-3.3-0.4-5.1-5.9-8.2
	l-2.7-1.7c-8-5.5-11.5-10.7-7.7-19.8c2.4-5.8,8.8-10.3,19.4-10.3c7.3,0,14.1,3.1,18.1,6.2l-7.6,8.9c-3.9-3.1-7.1-4.7-10.8-4.7
	c-2.9,0-5.2,1.1-5.9,2.7c-1.4,2.9,0.5,4.8,4.7,7.4l3.2,2c9.8,6.2,12.1,12.6,9.7,18.7C145.7,79.7,137.5,82,128.9,82L128.9,82z"/>
</svg>
