<svg xmlns="http://www.w3.org/2000/svg" viewBox="0 0 69.39 69.22"><title>plane</title><g id="Слой_2" data-name="Слой 2"><g id="Layer_1" data-name="Layer 1"><path d="M67.76,0l-2.1.2a1.61,1.61,0,0,0-.9.3l-20.6,17-38.6-5.2a1.48,1.48,0,0,0-1.3.4l-3.8,3.8A1.52,1.52,0,0,0,1,19l13.7,6-1,1a2.55,2.55,0,0,0,3.6,3.6l2.4-2.4L30,31.71l-14.9,18.7-11.3-2.3a1.79,1.79,0,0,0-1.4.4l-1.1,1.1a1.63,1.63,0,0,0,.4,2.5l10.5,5.2,5.2,10.5a1.56,1.56,0,0,0,2.5.4l1.1-1.1a1.49,1.49,0,0,0,.4-1.4l-2.3-11.3,18.6-15,4.3,9.8-2.5,2.5a2.55,2.55,0,0,0,3.6,3.6l1.1-1.1,6.2,14.1a1.57,1.57,0,0,0,2.5.5l3.8-3.8a1.48,1.48,0,0,0,.4-1.3l-5.2-38.6,17-20.6a1.22,1.22,0,0,0,.3-.9l.2-2.1A1.36,1.36,0,0,0,67.76,0Z"/></g></g></svg>