<svg xmlns="http://www.w3.org/2000/svg" viewBox="0 0 791.41 147.29"><g data-name="Слой 2"><path d="M41.81 106.72V79.9H14.7v26.82H0V39.9h14.7v26.44h27.11V39.9h14.7v66.82zm91.93 0l-6.11-15H99.38l-6.11 15h-15l28.64-67.3h13.56l28.64 67.3zm-20.23-49.64l-8.88 21.67h17.76zm82.09 50.12h-13l-27-67.3h16.23L189.3 87l17.47-47.1h15.85zm48.79-.48V39.9h50.4V53H259v13.53h31.5v13.08H259v14h36.28v13.08zm307.12 0l-14.32-21.38h-11.55v21.38h-14.7V39.9h30.55c15.75 0 25.2 8.31 25.2 22.05v.19c0 10.79-5.82 17.57-14.32 20.72l16.32 23.87zm.29-44c0-6.3-4.39-9.55-11.55-9.55h-14.61v19.18h14.89c7.16 0 11.26-3.82 11.26-9.45zm40.57 44V39.9h50.4V53H607v13.53h31.5v13.08H607v14h36.28v13.08zm100.14.96A42.52 42.52 0 01664.16 97l8.69-10.41c6 5 12.31 8.11 20 8.11 6 0 9.64-2.39 9.64-6.3v-.2c0-3.72-2.29-5.63-13.46-8.5-13.46-3.44-22.15-7.16-22.15-20.43v-.19c0-12.12 9.74-20.14 23.39-20.14a38.68 38.68 0 0124.73 8.5l-7.6 11.07c-5.92-4.1-11.74-6.59-17.37-6.59s-8.59 2.58-8.59 5.82v.19c0 4.39 2.86 5.82 14.41 8.78 13.56 3.53 21.19 8.4 21.19 20V87c-.04 13.23-10.11 20.68-24.53 20.68zm78.57-54.23v53.27h-14.7V53.45H736V39.9h55.37v13.55zM409 0h-13.57L366.8 67.29h15L402.21 58l20 9.31h15.37zm-7 45.69l-14 6.43 5.18-12.8L402 17.66l8.88 21.67 5.22 12.85zM422.64 80l-11.36 27.97-8.88 21.66-8.88-21.66L382.17 80H366.8l28.63 67.29h13.56L437.62 80h-14.98z" fill="#040706" data-name="Layer 1"/></g></svg>