<svg xmlns="http://www.w3.org/2000/svg" viewBox="0 0 56.47 117.78"><defs><style>.cls-1{fill:#a7a7a8}</style></defs><g id="Слой_2" data-name="Слой 2"><g id="Layer_1" data-name="Layer 1"><path class="cls-1" d="M47.72 111.72h-39a8.26 8.26 0 01-8.22-8.26V47.11a8.26 8.26 0 018.25-8.25h39A8.26 8.26 0 0156 47.11v56.35a8.26 8.26 0 01-8.28 8.26zm-39-72.2a7.6 7.6 0 00-7.59 7.59v56.35a7.6 7.6 0 007.59 7.59h39a7.6 7.6 0 007.59-7.59V47.11a7.6 7.6 0 00-7.59-7.59z"/><path class="cls-1" d="M47.72 112.22h-39A8.77 8.77 0 010 103.46V47.11a8.77 8.77 0 018.75-8.75h39a8.77 8.77 0 018.75 8.75v56.35a8.77 8.77 0 01-8.78 8.76zM8.75 40a7.1 7.1 0 00-7.09 7.09v56.35a7.1 7.1 0 007.09 7.09h39a7.1 7.1 0 007.09-7.09V47.11A7.1 7.1 0 0047.72 40z"/><path class="cls-1" d="M19.98 2.42h.99v36.76h-.99zm13.76 0h.99v36.76h-.99z"/><rect class="cls-1" x="18.44" width="17.72" height="2.86" rx=".59" ry=".59"/><path class="cls-1" d="M8.54 112.38a2.2 2.2 0 11-2.2 2.2 2.21 2.21 0 012.2-2.2m0-1a3.19 3.19 0 103.19 3.19 3.19 3.19 0 00-3.19-3.19zm40.7 1a2.2 2.2 0 11-2.2 2.2 2.21 2.21 0 012.2-2.2m0-1a3.19 3.19 0 103.19 3.19 3.19 3.19 0 00-3.19-3.19z"/></g></g></svg>