<svg xmlns="http://www.w3.org/2000/svg" viewBox="0 0 200 200"><circle cx="100" cy="100" r="100" fill="#a8a8a8"/><path d="M100.91 56c-28.04 0-50.86 19.96-50.86 44.5 0 10.06 3.84 19.71 10.89 27.46l-10.12 11.79c-.81.94-1 2.27-.48 3.39a3.179 3.179 0 002.89 1.86h47.68c28.04 0 50.86-19.96 50.86-44.5S128.96 56 100.91 56zm-25.42 50.86c-3.51 0-6.36-2.85-6.36-6.36s2.85-6.36 6.36-6.36c3.51 0 6.36 2.85 6.36 6.36s-2.86 6.36-6.36 6.36zm25.42 0c-3.51 0-6.36-2.85-6.36-6.36s2.85-6.36 6.36-6.36 6.36 2.85 6.36 6.36-2.85 6.36-6.36 6.36zm25.43 0c-3.51 0-6.36-2.85-6.36-6.36s2.85-6.36 6.36-6.36 6.36 2.85 6.36 6.36-2.85 6.36-6.36 6.36z" fill="#fff"/></svg>