<svg xmlns="http://www.w3.org/2000/svg" viewBox="0 0 119.78 119.78"><defs><style>.cls-1{fill:#a7a7a8;}</style></defs><title>usb</title><g id="Слой_2" data-name="Слой 2"><g id="Layer_1" data-name="Layer 1"><path class="cls-1" d="M10,24V6a2,2,0,0,1,2-2h20a2,2,0,0,1,2,2V24Zm26,4a2,2,0,0,0,2-2V6a6,6,0,0,0-6-6H12A6,6,0,0,0,6,6V26a2,2,0,0,0,2,2Z"/><path class="cls-1" d="M4,75.86V27.95H39.93V75.86Zm35.93,4a4,4,0,0,0,4-4V27.95a4,4,0,0,0-4-4H4a4,4,0,0,0-4,4V75.86a4,4,0,0,0,4,4Z"/><path class="cls-1" d="M16,79.85h12v6H16Zm12,10a4,4,0,0,0,4-4v-8a2,2,0,0,0-2-2H14a2,2,0,0,0-2,2v8a4,4,0,0,0,4,4Z"/><path class="cls-1" d="M73.86,35.93h39.93a2,2,0,0,0,2-2V2a2,2,0,0,0-2-2H73.86a2,2,0,0,0-2,2V33.94A2,2,0,0,0,73.86,35.93ZM75.86,4h35.93V31.94H75.86Z"/><path class="cls-1" d="M71.87,75.86V35.93h43.92V75.86Zm43.92,4a4,4,0,0,0,4-4V35.93a4,4,0,0,0-4-4H71.87a4,4,0,0,0-4,4V75.86a4,4,0,0,0,4,4Z"/><path class="cls-1" d="M87.84,79.85h12v6h-12Zm12,10a4,4,0,0,0,4-4v-8a2,2,0,0,0-2-2h-16a2,2,0,0,0-2,2v8a4,4,0,0,0,4,4Z"/><path class="cls-1" d="M81.85,24h8a2,2,0,0,0,2-2V14a2,2,0,0,0-2-2h-8a2,2,0,0,0-2,2v8A2,2,0,0,0,81.85,24Zm2-4V16h4v4Z"/><path class="cls-1" d="M97.82,24h8a2,2,0,0,0,2-2V14a2,2,0,0,0-2-2h-8a2,2,0,0,0-2,2v8A2,2,0,0,0,97.82,24Zm2-4V16h4v4Z"/><path class="cls-1" d="M27.95,95.87v-8a2,2,0,0,0-2-2H18a2,2,0,0,0-2,2v8a23.94,23.94,0,0,0,24,23.9H75.86a24,24,0,0,0,24-23.93v-8a2,2,0,0,0-2-2h-8a2,2,0,0,0-2,2v8a12,12,0,0,1-12,12H39.93A12,12,0,0,1,27.95,95.87Zm67.87-6v6a20,20,0,0,1-20,19.94H39.93A19.94,19.94,0,0,1,20,95.87v-6h4v6a15.94,15.94,0,0,0,16,15.92H75.86a16,16,0,0,0,16-15.94v-6Z"/></g></g></svg>