<svg xmlns="http://www.w3.org/2000/svg" viewBox="0 0 20 4.03"><defs><style>.cls-1{fill:#d3d3d3;}</style></defs><title>furnitur</title><g id="Слой_2" data-name="Слой 2"><g id="Layer_1" data-name="Layer 1"><path class="cls-1" d="M13,.92v2.2a1,1,0,0,0,1.2.9l2-.5a1.79,1.79,0,0,0,.7-.5H19a.94.94,0,0,0,1-1h0a.94.94,0,0,0-1-1H16.9a.75.75,0,0,0-.7-.5l-2-.5A1,1,0,0,0,13,.92Z"/><path class="cls-1" d="M12,3.72V2.32a.27.27,0,0,0-.3-.3H10.3a.27.27,0,0,0-.3.3v1.4a.27.27,0,0,0,.3.3h1.4A.27.27,0,0,0,12,3.72Z"/><path class="cls-1" d="M8,.32v1.4a.27.27,0,0,0,.3.3H9.7a.27.27,0,0,0,.3-.3V.32A.27.27,0,0,0,9.7,0H8.3A.27.27,0,0,0,8,.32Z"/><path class="cls-1" d="M8,3.72V2.32A.27.27,0,0,0,7.7,2H6.3a.27.27,0,0,0-.3.3v1.4a.27.27,0,0,0,.3.3H7.7A.27.27,0,0,0,8,3.72Z"/><path class="cls-1" d="M4.3,0a.27.27,0,0,0-.3.3v1.4a.27.27,0,0,0,.3.3H5.7a.27.27,0,0,0,.3-.3V.32A.27.27,0,0,0,5.7,0Z"/><path class="cls-1" d="M4,3.72V2.32A.27.27,0,0,0,3.7,2H2.3a.27.27,0,0,0-.3.3v1.4a.27.27,0,0,0,.3.3H3.7A.27.27,0,0,0,4,3.72Z"/><path class="cls-1" d="M2,1.72V.32A.27.27,0,0,0,1.7,0H.3a.27.27,0,0,0-.3.3v1.4A.27.27,0,0,0,.3,2H1.7A.27.27,0,0,0,2,1.72Z"/></g></g></svg>