<svg xmlns="http://www.w3.org/2000/svg" viewBox="0 0 110.57 71.1"><defs><style>.cls-1{fill:#8c8c8c;}</style></defs><title>hand-icon</title><g id="Слой_2" data-name="Слой 2"><g id="Capa_1" data-name="Capa 1"><path class="cls-1" d="M71.69,29.55l1.54,33.33,18,8.22L109,62.88l1.54-33.33Zm36.37,32.67L91.21,70l-17-7.78L72.73,30.55h36.79Zm-19.35,5h1a7.16,7.16,0,0,1,.13-1.4l-1-.19A8.22,8.22,0,0,0,88.71,67.19Zm7.77-7.58.17,1a22.12,22.12,0,0,1,3.17-.3l0-1A23.25,23.25,0,0,0,96.48,59.61ZM91,61.95a8.65,8.65,0,0,0-2.29-1.42l-.4.92a7.2,7.2,0,0,1,2.49,1.7L91,63l.19.18a7.17,7.17,0,0,1,2.49-1.7l-.4-.92A8.75,8.75,0,0,0,91,61.95Zm13.1-2.46-1-.1-.08,1c.89.07,1.44.16,1.45.16l.56.09.06-2.06-1,0Zm.56-17.62,1,0,.11-3.33-1,0Zm-.21,6.67,1,0,.11-3.33-1,0Zm-.21,6.67,1,0,.11-3.33-1,0Zm-.32-21h1l0,1,1,0,.06-2h-2v1Zm-14.35-1H86.66v1h2.87Zm-5.74,0H80.92v1h2.87Zm14.35,1H101v-1H98.14Zm-5.74,0h2.87v-1H92.4Zm-15.34,0h1v-1H76l.06,2,1,0Zm.35,11-1,0,.11,3.33,1,0Zm-.21-6.67-1,0,.11,3.33,1,0Zm.42,13.33-1,0,.11,3.33,1,0Zm.24,7.62,0-.95-1,0,.06,2.06.56-.09s.56-.09,1.45-.16l-.08-1Zm4.24.81a22.08,22.08,0,0,1,3.17.3l.17-1a23.34,23.34,0,0,0-3.31-.31Zm10,5.5a7.25,7.25,0,0,1,.13,1.4h1a8.39,8.39,0,0,0-.15-1.59ZM73.15,24.93a11,11,0,0,0,2.23-1.07L81,29.47H99.72l3.18-3.18L83,6.35,76.1,13.21a6.21,6.21,0,0,0-1-1.33c-4.41-5.66-12.54-8.47-20-9.67-4.94-.8-6.68-3-9.6-1.95A11.32,11.32,0,0,0,42,2.4l-.48.44c-.34.33-.53.56-.61.65l-.49.5h0l-.71.73-.85.86-.46.47h0l-.4.41c-6.3,6.3-7.78,7.18-12.94,11.81a42.7,42.7,0,0,1-10.93,7.21l-13,4C-3.69,40.22,8.31,47.61,8.31,47.61l14-7.51a21.59,21.59,0,0,1,6.85-2.2c10.29-.56,23.4-9.18,21.49-7.27s-2.32,2.84-.77,5.09,6.38-2.23,6.38-2.23.28,1,2.34,2.41c.61.41,1.43,0,2.27-.9a31.81,31.81,0,0,0,4.17-6.18s.73,3.6,3.82,2.12a3.58,3.58,0,0,0,1-.7c1.24-1.24.7-2.9.68-3.74a.65.65,0,0,1,.1-.46l0,0a4.75,4.75,0,0,1,.47-.25c.29-.14.63-.29.94-.42C72.68,25.11,73.15,24.93,73.15,24.93Zm-8.21-7.85c-8.62,2-10.77.94-10.77.94a2.56,2.56,0,0,1,.13-3.87,6.43,6.43,0,0,1,1-.78c.27-.09.55-.17.85-.24l.84-.19a41.23,41.23,0,0,1,6-.64l.43.3a8.44,8.44,0,0,1,2.11,1.46l1.89,1.31a15.94,15.94,0,0,1,4.26,0,11.28,11.28,0,0,1,1.13.22c.26.07.5.15.74.22l-1,1c-.25-.06-.5-.13-.78-.18a11.54,11.54,0,0,0-1.21-.15A18.6,18.6,0,0,0,64.94,17.09Z"/></g></g></svg>