<svg xmlns="http://www.w3.org/2000/svg" viewBox="0 0 10.19 10.65"><defs><style>.cls-1{fill:#8c8c8c;}</style></defs><title>cloth-comp</title><g id="Слой_2" data-name="Слой 2"><g id="Layer_1" data-name="Layer 1"><path class="cls-1" d="M9.37,0H.82A.82.82,0,0,0,0,.82v9a.82.82,0,0,0,.82.82H9.37a.82.82,0,0,0,.82-.82v-9A.82.82,0,0,0,9.37,0ZM.82.4H2.35c.44.86,1.55,3,2.81,3S7.31,1.47,7.77.55L7.84.4H9.37a.41.41,0,0,1,.41.41v4H7.9a.2.2,0,0,0-.2.2V8a.2.2,0,0,0,.12.18l2,.9v.77a.41.41,0,0,1-.41.41H.82A.41.41,0,0,1,.4,9.83v-9A.41.41,0,0,1,.82.4ZM5.16,3C4.49,3,3.7,2.11,2.8.4H7.39C7,1.26,6.1,3,5.16,3ZM8.44,5.81H9.78V8.62L8.1,7.85V5.19H9.78V5.4H8.44a.2.2,0,0,0,0,.4Z"/><path class="cls-1" d="M3.42,3.15a.2.2,0,0,0,.28,0,.2.2,0,0,0,0-.29c-.14-.15-.27-.31-.41-.49a.2.2,0,0,0-.36.1.2.2,0,0,0,0,.15C3.13,2.82,3.27,3,3.42,3.15Z"/><path class="cls-1" d="M6.35,3.61a.2.2,0,0,0,.13,0A7.35,7.35,0,0,0,8,1.47l.2-.36a.2.2,0,1,0-.35-.2l-.2.36a7,7,0,0,1-1.42,2,.2.2,0,0,0,.13.35Z"/></g></g></svg>