<svg xmlns="http://www.w3.org/2000/svg" viewBox="0 0 132.27 122.44"><defs><style>.cls-1{fill:#a7a7a8;stroke:#a7a7a8;stroke-miterlimit:10;stroke-width:2px;}</style></defs><title>vesy</title><g id="Слой_2" data-name="Слой 2"><g id="Layer_1" data-name="Layer 1"><path class="cls-1" d="M104,112.72H65a8.26,8.26,0,0,1-8.25-8.25V48.11A8.26,8.26,0,0,1,65,39.85h39a8.26,8.26,0,0,1,8.25,8.25v56.35A8.26,8.26,0,0,1,104,112.72ZM65,40.51a7.6,7.6,0,0,0-7.59,7.59v56.35A7.6,7.6,0,0,0,65,112.06h39a7.6,7.6,0,0,0,7.59-7.59V48.11A7.6,7.6,0,0,0,104,40.51Z"/><path class="cls-1" d="M104,113.22H65a8.77,8.77,0,0,1-8.75-8.75V48.11A8.77,8.77,0,0,1,65,39.35h39a8.77,8.77,0,0,1,8.75,8.75v56.35A8.77,8.77,0,0,1,104,113.22ZM65,41a7.1,7.1,0,0,0-7.09,7.09v56.35A7.1,7.1,0,0,0,65,111.56h39a7.1,7.1,0,0,0,7.09-7.09V48.11A7.1,7.1,0,0,0,104,41Z"/><rect class="cls-1" x="76.25" y="3.42" width="0.99" height="36.76"/><rect class="cls-1" x="90" y="3.42" width="0.99" height="36.76"/><rect class="cls-1" x="74.7" y="1" width="17.72" height="2.86" rx="0.59" ry="0.59"/><path class="cls-1" d="M64.8,113.38a2.2,2.2,0,1,1-2.2,2.2,2.21,2.21,0,0,1,2.2-2.2m0-1A3.19,3.19,0,1,0,68,115.58a3.19,3.19,0,0,0-3.19-3.19Z"/><path class="cls-1" d="M105.51,113.38a2.2,2.2,0,1,1-2.2,2.2,2.21,2.21,0,0,1,2.2-2.2m0-1a3.19,3.19,0,1,0,3.19,3.19,3.19,3.19,0,0,0-3.19-3.19Z"/><path class="cls-1" d="M20.79,7.86A17.79,17.79,0,1,1,3,25.65,17.81,17.81,0,0,1,20.79,7.86m0-2A19.79,19.79,0,1,0,40.58,25.65,19.79,19.79,0,0,0,20.79,5.86Z"/><polygon class="cls-1" points="131.27 121.44 19.79 121.44 19.79 43.77 21.79 43.77 21.79 119.44 131.27 119.44 131.27 121.44"/><rect class="cls-1" x="19.01" y="22.14" width="12.17" height="2" transform="translate(-9.01 24.52) rotate(-45)"/></g></g></svg>