<svg xmlns="http://www.w3.org/2000/svg" viewBox="0 0 44 54"><defs><style>.cls-1{fill:#9d9c9c;}</style></defs><title>locked</title><g id="Слой_2" data-name="Слой 2"><g id="Capa_1" data-name="Capa 1"><path class="cls-1" d="M38,20.11V14.5C38,6.51,30.82,0,22,0S6,6.51,6,14.5v5.61a7.24,7.24,0,0,0-6,7.12V46.77A7.24,7.24,0,0,0,7.23,54H36.77A7.24,7.24,0,0,0,44,46.77V27.23A7.24,7.24,0,0,0,38,20.11ZM8,14.5C8,7.61,14.28,2,22,2S36,7.61,36,14.5V20H8ZM42,46.77A5.24,5.24,0,0,1,36.77,52H7.23A5.24,5.24,0,0,1,2,46.77V27.23A5.24,5.24,0,0,1,7.23,22H36.77A5.24,5.24,0,0,1,42,27.23Z"/><path class="cls-1" d="M22,28a4,4,0,0,0-4,4v6a4,4,0,0,0,8,0V32A4,4,0,0,0,22,28Zm2,10a2,2,0,0,1-4,0V32a2,2,0,0,1,4,0Z"/></g></g></svg>