<svg xmlns="http://www.w3.org/2000/svg" viewBox="0 0 58.47 119.78"><defs><style>.cls-1{fill:#d2d2d2;}</style></defs><title>chemblock</title><g id="Слой_2" data-name="Слой 2"><g id="Layer_1" data-name="Layer 1"><path class="cls-1" d="M48.72,38.35h-12V4.85a1.59,1.59,0,0,0,1.43-1.58V1.59A1.59,1.59,0,0,0,36.58,0H20a1.59,1.59,0,0,0-1.59,1.59V3.28A1.59,1.59,0,0,0,20,4.86V38.35H9.76A9.77,9.77,0,0,0,0,48.11v56.35a9.77,9.77,0,0,0,5.95,9,4.15,4.15,0,0,0-.61,2.14,4.19,4.19,0,0,0,8.39,0,4.14,4.14,0,0,0-.25-1.36H46.3a4.14,4.14,0,0,0-.25,1.36,4.19,4.19,0,0,0,8.39,0,4.15,4.15,0,0,0-.95-2.62,9.76,9.76,0,0,0,5-8.5V48.11A9.77,9.77,0,0,0,48.72,38.35ZM23,4.86H33.74V38.35H23ZM9.54,116.78a1.2,1.2,0,1,1,1.2-1.2A1.2,1.2,0,0,1,9.54,116.78Zm40.71,0a1.2,1.2,0,1,1,1.2-1.2A1.21,1.21,0,0,1,50.25,116.78Zm4.57-12.32a6.1,6.1,0,0,1-6.09,6.09h-39a6.1,6.1,0,0,1-6.1-6.09V48.11A6.1,6.1,0,0,1,9.76,42h39a6.1,6.1,0,0,1,6.09,6.09Z"/><path class="cls-1" d="M13.86,61.2"/><path class="cls-1" d="M16.76,68a3.68,3.68,0,0,0-3.64-3.64A3.64,3.64,0,1,0,16.76,68Z"/><path class="cls-1" d="M47.58,68a3.64,3.64,0,1,0-3.64,3.64A3.62,3.62,0,0,0,47.58,68Z"/><path class="cls-1" d="M38.76,76.17a.79.79,0,0,0-.81-.89H19.83a.83.83,0,0,0-.81.89,9.9,9.9,0,0,0,19.74,0Z"/></g></g></svg>