<svg xmlns="http://www.w3.org/2000/svg" viewBox="0 0 46.25 38.55"><defs><style>.cls-1{fill:#d2d2d2;}</style></defs><title>swipe</title><g id="Слой_2" data-name="Слой 2"><g id="Layer_1" data-name="Layer 1"><path class="cls-1" d="M36.39,12.89a3.27,3.27,0,0,0-1.42.33A3.83,3.83,0,0,0,31.39,10a3.27,3.27,0,0,0-1.42.33,3.83,3.83,0,0,0-3.58-3.19,3.26,3.26,0,0,0-1.31.27V4.23A4,4,0,0,0,21.38,0a4,4,0,0,0-3.69,4.23V20.08l-1.32-1.51a3.37,3.37,0,0,0-5.22,0,4.68,4.68,0,0,0,0,6l8.68,9.95a11.05,11.05,0,0,0,8.43,4.05c6.18,0,11.32-5.47,11.79-12.5a1.55,1.55,0,0,0,0-.33v-8.6A4,4,0,0,0,36.39,12.89ZM37.7,25.48a1.63,1.63,0,0,0,0,.16c-.29,5.71-4.43,10.18-9.42,10.18a8.82,8.82,0,0,1-6.73-3.24h0l-8.69-10a1.66,1.66,0,0,1,0-2.12,1.2,1.2,0,0,1,1.85,0L18,24.34a1.08,1.08,0,0,0,1.3.3,1.38,1.38,0,0,0,.74-1.26V4.23a1.32,1.32,0,1,1,2.62,0V17.13a1.2,1.2,0,1,0,2.38,0V11.39a1.32,1.32,0,1,1,2.62,0v5.73a1.2,1.2,0,1,0,2.38,0V14.26a1.32,1.32,0,1,1,2.62,0v4.3a1.2,1.2,0,1,0,2.38,0V17.13a1.32,1.32,0,1,1,2.62,0v8.36Z"/><polygon class="cls-1" points="6.92 3.47 6.92 0.72 0 4.38 6.92 8.05 6.92 5.3 11.08 5.3 11.08 3.47 6.92 3.47"/><polygon class="cls-1" points="39.33 5.3 39.33 8.05 46.25 4.38 39.33 0.72 39.33 3.47 35.17 3.47 35.17 5.3 39.33 5.3"/></g></g></svg>