<svg xmlns="http://www.w3.org/2000/svg" viewBox="0 0 20 4.03"><g data-name="Слой 2"><path d="M13 .92v2.2a1 1 0 001.2.9l2-.5a1.79 1.79 0 00.7-.5H19a.94.94 0 001-1 .94.94 0 00-1-1h-2.1a.75.75 0 00-.7-.5l-2-.5a1 1 0 00-1.2.9zm-1 2.8v-1.4a.27.27 0 00-.3-.3h-1.4a.27.27 0 00-.3.3v1.4a.27.27 0 00.3.3h1.4a.27.27 0 00.3-.3zM8 .32v1.4a.27.27 0 00.3.3h1.4a.27.27 0 00.3-.3V.32A.27.27 0 009.7 0H8.3a.27.27 0 00-.3.32zm0 3.4v-1.4A.27.27 0 007.7 2H6.3a.27.27 0 00-.3.3v1.4a.27.27 0 00.3.3h1.4a.27.27 0 00.3-.28zM4.3 0a.27.27 0 00-.3.3v1.4a.27.27 0 00.3.3h1.4a.27.27 0 00.3-.3V.32A.27.27 0 005.7 0zM4 3.72v-1.4A.27.27 0 003.7 2H2.3a.27.27 0 00-.3.3v1.4a.27.27 0 00.3.3h1.4a.27.27 0 00.3-.28zm-2-2V.32A.27.27 0 001.7 0H.3a.27.27 0 00-.3.3v1.4a.27.27 0 00.3.3h1.4a.27.27 0 00.3-.28z" fill="#d3d3d3" data-name="Layer 1"/></g></svg>