<svg xmlns="http://www.w3.org/2000/svg" viewBox="0 0 110.57 71.1"><g data-name="Слой 2"><path d="M71.69 29.55l1.54 33.33 18 8.22L109 62.88l1.54-33.33zm36.37 32.67L91.21 70l-17-7.78-1.48-31.67h36.79zm-19.35 5h1a7.16 7.16 0 01.13-1.4l-1-.19a8.22 8.22 0 00-.13 1.56zm7.77-7.58l.17 1a22.12 22.12 0 013.17-.3v-1a23.25 23.25 0 00-3.34.27zM91 61.95a8.65 8.65 0 00-2.29-1.42l-.4.92a7.2 7.2 0 012.49 1.7L91 63l.19.18a7.17 7.17 0 012.49-1.7l-.4-.92A8.75 8.75 0 0091 61.95zm13.1-2.46l-1-.1-.08 1c.89.07 1.44.16 1.45.16l.56.09.06-2.06h-1zm.56-17.62h1l.11-3.33h-1zm-.21 6.67h1l.11-3.33h-1zm-.21 6.67h1l.11-3.33h-1zm-.32-21h1v1h1l.06-2h-2v1zm-14.35-1h-2.91v1h2.87zm-5.74 0h-2.91v1h2.87zm14.35 1H101v-1h-2.86zm-5.74 0h2.87v-1H92.4zm-15.34 0h1v-1H76l.06 2h1zm.35 11h-1l.11 3.33h1zm-.21-6.67h-1l.11 3.33h1zm.42 13.33h-1l.11 3.33h1zm.24 7.62v-.95h-1l.06 2.06.56-.09s.56-.09 1.45-.16l-.08-1zm4.24.81a22.08 22.08 0 013.17.3l.17-1a23.34 23.34 0 00-3.31-.31zm10 5.5a7.25 7.25 0 01.13 1.4h1a8.39 8.39 0 00-.15-1.59zM73.15 24.93a11 11 0 002.23-1.07L81 29.47h18.72l3.18-3.18L83 6.35l-6.9 6.86a6.21 6.21 0 00-1-1.33c-4.41-5.66-12.54-8.47-20-9.67-4.94-.8-6.68-3-9.6-1.95A11.32 11.32 0 0042 2.4l-.48.44c-.34.33-.53.56-.61.65l-.49.5-.71.73-.85.86-.46.47-.4.41c-6.3 6.3-7.78 7.18-12.94 11.81a42.7 42.7 0 01-10.93 7.21l-13 4c-4.82 10.74 7.18 18.13 7.18 18.13l14-7.51a21.59 21.59 0 016.85-2.2c10.29-.56 23.4-9.18 21.49-7.27s-2.32 2.84-.77 5.09 6.38-2.23 6.38-2.23.28 1 2.34 2.41c.61.41 1.43 0 2.27-.9a31.81 31.81 0 004.17-6.18s.73 3.6 3.82 2.12a3.58 3.58 0 001-.7c1.24-1.24.7-2.9.68-3.74a.65.65 0 01.1-.46 4.75 4.75 0 01.47-.25c.29-.14.63-.29.94-.42.63-.26 1.1-.44 1.1-.44zm-8.21-7.85c-8.62 2-10.77.94-10.77.94a2.56 2.56 0 01.13-3.87 6.43 6.43 0 011-.78c.27-.09.55-.17.85-.24l.84-.19a41.23 41.23 0 016-.64l.43.3a8.44 8.44 0 012.11 1.46l1.89 1.31a15.94 15.94 0 014.26 0 11.28 11.28 0 011.13.22c.26.07.5.15.74.22l-1 1c-.25-.06-.5-.13-.78-.18a11.54 11.54 0 00-1.21-.15 18.6 18.6 0 00-5.62.61z" fill="#8c8c8c" data-name="Capa 1"/></g></svg>