<svg xmlns="http://www.w3.org/2000/svg" viewBox="0 0 44 54"><defs><style>.cls-1{fill:#9d9c9c}</style></defs><g id="Слой_2" data-name="Слой 2"><g id="Capa_1" data-name="Capa 1"><path class="cls-1" d="M38 20.11V14.5C38 6.51 30.82 0 22 0S6 6.51 6 14.5v5.61a7.24 7.24 0 00-6 7.12v19.54A7.24 7.24 0 007.23 54h29.54A7.24 7.24 0 0044 46.77V27.23a7.24 7.24 0 00-6-7.12zM8 14.5C8 7.61 14.28 2 22 2s14 5.61 14 12.5V20H8zm34 32.27A5.24 5.24 0 0136.77 52H7.23A5.24 5.24 0 012 46.77V27.23A5.24 5.24 0 017.23 22h29.54A5.24 5.24 0 0142 27.23z"/><path class="cls-1" d="M22 28a4 4 0 00-4 4v6a4 4 0 008 0v-6a4 4 0 00-4-4zm2 10a2 2 0 01-4 0v-6a2 2 0 014 0z"/></g></g></svg>