<svg xmlns="http://www.w3.org/2000/svg" viewBox="0 0 132.27 122.44"><defs><style>.cls-1{fill:#a7a7a8;stroke:#a7a7a8;stroke-miterlimit:10;stroke-width:2px}</style></defs><g id="Слой_2" data-name="Слой 2"><g id="Layer_1" data-name="Layer 1"><path class="cls-1" d="M104 112.72H65a8.26 8.26 0 01-8.25-8.25V48.11A8.26 8.26 0 0165 39.85h39a8.26 8.26 0 018.25 8.25v56.35a8.26 8.26 0 01-8.25 8.27zM65 40.51a7.6 7.6 0 00-7.59 7.59v56.35a7.6 7.6 0 007.59 7.61h39a7.6 7.6 0 007.59-7.59V48.11a7.6 7.6 0 00-7.59-7.6z"/><path class="cls-1" d="M104 113.22H65a8.77 8.77 0 01-8.75-8.75V48.11A8.77 8.77 0 0165 39.35h39a8.77 8.77 0 018.75 8.75v56.35a8.77 8.77 0 01-8.75 8.77zM65 41a7.1 7.1 0 00-7.09 7.09v56.35a7.1 7.1 0 007.09 7.12h39a7.1 7.1 0 007.09-7.09V48.11A7.1 7.1 0 00104 41z"/><path class="cls-1" d="M76.25 3.42h.99v36.76h-.99zm13.75 0h.99v36.76H90z"/><rect class="cls-1" x="74.7" y="1" width="17.72" height="2.86" rx=".59" ry=".59"/><path class="cls-1" d="M64.8 113.38a2.2 2.2 0 11-2.2 2.2 2.21 2.21 0 012.2-2.2m0-1a3.19 3.19 0 103.2 3.2 3.19 3.19 0 00-3.19-3.19zm40.71 1a2.2 2.2 0 11-2.2 2.2 2.21 2.21 0 012.2-2.2m0-1a3.19 3.19 0 103.19 3.19 3.19 3.19 0 00-3.19-3.19zM20.79 7.86A17.79 17.79 0 113 25.65 17.81 17.81 0 0120.79 7.86m0-2a19.79 19.79 0 1019.79 19.79A19.79 19.79 0 0020.79 5.86z"/><path class="cls-1" d="M131.27 121.44H19.79V43.77h2v75.67h109.48v2z"/><path class="cls-1" transform="rotate(-45 25.093 23.136)" d="M19.01 22.14h12.17v2H19.01z"/></g></g></svg>