<svg xmlns="http://www.w3.org/2000/svg" viewBox="0 0 10.19 10.65"><defs><style>.cls-1{fill:#8c8c8c}</style></defs><g id="Слой_2" data-name="Слой 2"><g id="Layer_1" data-name="Layer 1"><path class="cls-1" d="M9.37 0H.82A.82.82 0 000 .82v9a.82.82 0 00.82.82h8.55a.82.82 0 00.82-.82v-9A.82.82 0 009.37 0zM.82.4h1.53c.44.86 1.55 3 2.81 3S7.31 1.47 7.77.55L7.84.4h1.53a.41.41 0 01.41.41v4H7.9a.2.2 0 00-.2.2V8a.2.2 0 00.12.18l2 .9v.77a.41.41 0 01-.41.41H.82a.41.41 0 01-.42-.43v-9A.41.41 0 01.82.4zM5.16 3C4.49 3 3.7 2.11 2.8.4h4.59C7 1.26 6.1 3 5.16 3zm3.28 2.81h1.34v2.81L8.1 7.85V5.19h1.68v.21H8.44a.2.2 0 000 .4z"/><path class="cls-1" d="M3.42 3.15a.2.2 0 00.28 0 .2.2 0 000-.29c-.14-.15-.27-.31-.41-.49a.2.2 0 00-.36.1.2.2 0 000 .15c.2.2.34.38.49.53zm2.93.46a.2.2 0 00.13 0A7.35 7.35 0 008 1.47l.2-.36a.2.2 0 10-.35-.2l-.2.36a7 7 0 01-1.42 2 .2.2 0 00.13.35z"/></g></g></svg>