<svg xmlns="http://www.w3.org/2000/svg" viewBox="0 0 478.7 478.7"><defs><style>.cls-1{fill:#9d9c9c}</style></defs><g id="Слой_2" data-name="Слой 2"><g id="Capa_1" data-name="Capa 1"><path class="cls-1" d="M454.2 189.1l-33.6-5.7a189.72 189.72 0 00-13.5-32.6l19.8-27.7a29.48 29.48 0 00-3.2-38.1l-29.8-29.8a29.35 29.35 0 00-20.9-8.7 29.06 29.06 0 00-17.1 5.5l-27.8 19.8a187.75 187.75 0 00-33.8-13.9l-5.6-33.2A29.54 29.54 0 00259.5 0h-42.1a29.54 29.54 0 00-29.2 24.7l-5.8 34a185 185 0 00-32.5 13.7l-27.5-19.8a29.54 29.54 0 00-38.1 3.2L54.4 85.6a29.6 29.6 0 00-3.2 38.1l20 28.1a185.31 185.31 0 00-13.3 32.7l-33.2 5.6A29.54 29.54 0 000 219.3v42.1a29.54 29.54 0 0024.7 29.2l34 5.8a185 185 0 0013.7 32.5l-19.7 27.4a29.48 29.48 0 003.2 38.1l29.8 29.8a29.35 29.35 0 0020.9 8.7 29.06 29.06 0 0017.1-5.5l28.1-20a189.18 189.18 0 0031.6 13L189 454a29.54 29.54 0 0029.2 24.7h42.2a29.54 29.54 0 0029.2-24.7l5.7-33.6a189.72 189.72 0 0032.6-13.5l27.7 19.8a29.36 29.36 0 0017.2 5.5 29.35 29.35 0 0020.9-8.7l29.8-29.8a29.6 29.6 0 003.2-38.1l-19.8-27.8a188.36 188.36 0 0013.5-32.6l33.6-5.6a29.54 29.54 0 0024.7-29.2v-42.1a29.19 29.19 0 00-24.5-29.2zm-2.3 71.3a2.59 2.59 0 01-2.2 2.6l-42 7a13.43 13.43 0 00-10.8 9.9 160.08 160.08 0 01-17.4 41.9 13.52 13.52 0 00.6 14.7l24.7 34.8a2.72 2.72 0 01-.3 3.4l-29.8 29.8a2.54 2.54 0 01-1.9.8 2.46 2.46 0 01-1.5-.5l-34.7-24.7a13.51 13.51 0 00-14.7-.6 160.08 160.08 0 01-41.9 17.4 13.27 13.27 0 00-9.9 10.8l-7.1 42a2.59 2.59 0 01-2.6 2.2h-42.1a2.59 2.59 0 01-2.6-2.2l-7-42a13.43 13.43 0 00-9.9-10.8 166.23 166.23 0 01-41-16.8 13.84 13.84 0 00-6.8-1.8 13.17 13.17 0 00-7.8 2.5l-35 24.9a3 3 0 01-1.5.5 2.68 2.68 0 01-1.9-.8L75 375.6a2.71 2.71 0 01-.3-3.4l24.6-34.5a13.69 13.69 0 00.6-14.8 158.58 158.58 0 01-17.6-41.8 13.69 13.69 0 00-10.8-9.9L29.2 264a2.59 2.59 0 01-2.2-2.6v-42.1a2.59 2.59 0 012.2-2.6l41.7-7a13.52 13.52 0 0010.9-10 159.92 159.92 0 0117.1-42 13.35 13.35 0 00-.7-14.6l-24.9-35a2.72 2.72 0 01.3-3.4l29.8-29.8a2.54 2.54 0 011.9-.8 2.46 2.46 0 011.5.5l34.5 24.6a13.69 13.69 0 0014.8.6 158.58 158.58 0 0141.8-17.6 13.69 13.69 0 009.9-10.8l7.2-42.3a2.59 2.59 0 012.6-2.2h42.1a2.59 2.59 0 012.6 2.2l7 41.7a13.52 13.52 0 0010 10.9 162.31 162.31 0 0142.9 17.6 13.52 13.52 0 0014.7-.6l34.5-24.8a3 3 0 011.5-.5 2.68 2.68 0 011.9.8l29.8 29.8a2.71 2.71 0 01.3 3.4l-24.7 34.7a13.51 13.51 0 00-.6 14.7 160.08 160.08 0 0117.4 41.9 13.27 13.27 0 0010.8 9.9l42 7.1a2.59 2.59 0 012.2 2.6v42.1z"/><path class="cls-1" d="M239.4 136a103.3 103.3 0 10103.3 103.3A103.37 103.37 0 00239.4 136zm0 179.6a76.3 76.3 0 1176.3-76.3 76.35 76.35 0 01-76.3 76.3z"/></g></g></svg>