<svg xmlns="http://www.w3.org/2000/svg" viewBox="0 0 58.47 119.78"><defs><style>.cls-1{fill:#d2d2d2}</style></defs><g id="Слой_2" data-name="Слой 2"><g id="Layer_1" data-name="Layer 1"><path class="cls-1" d="M48.72 38.35h-12V4.85a1.59 1.59 0 001.43-1.58V1.59A1.59 1.59 0 0036.58 0H20a1.59 1.59 0 00-1.59 1.59v1.69A1.59 1.59 0 0020 4.86v33.49H9.76A9.77 9.77 0 000 48.11v56.35a9.77 9.77 0 005.95 9 4.15 4.15 0 00-.61 2.14 4.19 4.19 0 008.39 0 4.14 4.14 0 00-.25-1.36H46.3a4.14 4.14 0 00-.25 1.36 4.19 4.19 0 008.39 0 4.15 4.15 0 00-.95-2.62 9.76 9.76 0 005-8.5V48.11a9.77 9.77 0 00-9.77-9.76zM23 4.86h10.74v33.49H23zM9.54 116.78a1.2 1.2 0 111.2-1.2 1.2 1.2 0 01-1.2 1.2zm40.71 0a1.2 1.2 0 111.2-1.2 1.21 1.21 0 01-1.2 1.2zm4.57-12.32a6.1 6.1 0 01-6.09 6.09h-39a6.1 6.1 0 01-6.1-6.09V48.11A6.1 6.1 0 019.76 42h39a6.1 6.1 0 016.09 6.09z"/><path class="cls-1" d="M16.76 68a3.68 3.68 0 00-3.64-3.64A3.64 3.64 0 1016.76 68zm30.82 0a3.64 3.64 0 10-3.64 3.64A3.62 3.62 0 0047.58 68zm-8.82 8.17a.79.79 0 00-.81-.89H19.83a.83.83 0 00-.81.89 9.9 9.9 0 0019.74 0z"/></g></g></svg>