<svg xmlns="http://www.w3.org/2000/svg" viewBox="0 0 46.25 38.55"><g data-name="Слой 2"><path d="M36.39 12.89a3.27 3.27 0 00-1.42.33A3.83 3.83 0 0031.39 10a3.27 3.27 0 00-1.42.33 3.83 3.83 0 00-3.58-3.19 3.26 3.26 0 00-1.31.27V4.23A4 4 0 0021.38 0a4 4 0 00-3.69 4.23v15.85l-1.32-1.51a3.37 3.37 0 00-5.22 0 4.68 4.68 0 000 6l8.68 9.95a11.05 11.05 0 008.43 4.05c6.18 0 11.32-5.47 11.79-12.5a1.55 1.55 0 000-.33v-8.6a4 4 0 00-3.66-4.25zm1.31 12.59a1.63 1.63 0 000 .16c-.29 5.71-4.43 10.18-9.42 10.18a8.82 8.82 0 01-6.73-3.24l-8.69-10a1.66 1.66 0 010-2.12 1.2 1.2 0 011.85 0L18 24.34a1.08 1.08 0 001.3.3 1.38 1.38 0 00.74-1.26V4.23a1.32 1.32 0 112.62 0v12.9a1.2 1.2 0 102.38 0v-5.74a1.32 1.32 0 112.62 0v5.73a1.2 1.2 0 102.38 0v-2.86a1.32 1.32 0 112.62 0v4.3a1.2 1.2 0 102.38 0v-1.43a1.32 1.32 0 112.62 0v8.36zM6.92 3.47V.72L0 4.38l6.92 3.67V5.3h4.16V3.47H6.92zM39.33 5.3v2.75l6.92-3.67L39.33.72v2.75h-4.16V5.3h4.16z" fill="#d2d2d2" data-name="Layer 1"/></g></svg>