<svg xmlns="http://www.w3.org/2000/svg" viewBox="0 0 28.59 28.59"><defs><style>.cls-2{fill:#8c8c8c}</style></defs><g id="Слой_2" data-name="Слой 2"><g id="Layer_1" data-name="Layer 1"><circle cx="14.3" cy="14.3" r="14.05" fill="none" stroke="#9e9e9e" stroke-miterlimit="10" stroke-width=".5"/><path class="cls-2" d="M18.38 8.79H9.83A.82.82 0 009 9.6v9a.82.82 0 00.82.82h8.55a.82.82 0 00.82-.82v-9a.82.82 0 00-.81-.81zm-8.55.4h1.53c.44.86 1.55 3 2.81 3s2.15-1.91 2.61-2.82l.07-.15h1.53a.41.41 0 01.41.41v4h-1.88a.2.2 0 00-.2.2v3a.2.2 0 00.12.18l2 .9v.77a.41.41 0 01-.41.41H9.83a.41.41 0 01-.41-.41v-9a.41.41 0 01.41-.49zm4.34 2.57c-.67 0-1.46-.86-2.36-2.57h4.59c-.4.81-1.29 2.57-2.23 2.57zm3.28 2.84h1.35v2.81l-1.68-.77V14h1.68v.21h-1.35a.2.2 0 000 .4z"/><path class="cls-2" d="M12.43 11.94a.2.2 0 00.28 0 .2.2 0 000-.29c-.14-.15-.27-.31-.41-.49a.2.2 0 00-.36.1.2.2 0 000 .15c.2.2.35.37.49.53zm2.93.45a.2.2 0 00.13 0A7.35 7.35 0 0017 10.26l.2-.36a.2.2 0 10-.35-.2l-.2.36a7 7 0 01-1.42 2 .2.2 0 00.13.35z"/></g></g></svg>