<svg xmlns="http://www.w3.org/2000/svg" viewBox="0 0 28.59 28.59"><defs><style>.cls-2{fill:#8c8c8c}</style></defs><g id="Слой_2" data-name="Слой 2"><g id="Layer_1" data-name="Layer 1"><circle cx="14.3" cy="14.3" r="14.05" fill="none" stroke="#9e9e9e" stroke-miterlimit="10" stroke-width=".5"/><path class="cls-2" d="M10.7 11.59v-1.32a.15.15 0 01.15-.15h1.47a.15.15 0 01.15.15v1.32zm1.91.29a.15.15 0 00.15-.15v-1.46a.44.44 0 00-.44-.44h-1.48a.44.44 0 00-.44.44v1.47a.15.15 0 00.15.15z"/><path class="cls-2" d="M10.26 15.41v-3.52h2.64v3.52zm2.64.29a.29.29 0 00.29-.29v-3.52a.29.29 0 00-.29-.29h-2.64a.29.29 0 00-.29.29v3.52a.29.29 0 00.29.29z"/><path class="cls-2" d="M11.14 15.7H12v.44h-.88zm.88.73a.29.29 0 00.29-.29v-.59a.15.15 0 00-.15-.15H11a.15.15 0 00-.15.15v.59a.29.29 0 00.29.29zm3.37-3.96h2.93a.15.15 0 00.15-.15V10a.15.15 0 00-.15-.15h-2.93a.15.15 0 00-.15.15v2.35a.15.15 0 00.15.12zm.15-2.35h2.64v2.05h-2.64z"/><path class="cls-2" d="M15.25 15.41v-2.94h3.23v2.93zm3.23.29a.29.29 0 00.29-.29v-2.94a.29.29 0 00-.29-.29h-3.23a.29.29 0 00-.29.29v2.93a.29.29 0 00.29.29z"/><path class="cls-2" d="M16.42 15.7h.88v.44h-.88zm.88.73a.29.29 0 00.29-.29v-.59a.15.15 0 00-.15-.15h-1.17a.15.15 0 00-.15.15v.59a.29.29 0 00.29.29zM16 11.59h.59a.15.15 0 00.15-.15v-.59a.15.15 0 00-.15-.15H16a.15.15 0 00-.15.15v.59a.15.15 0 00.15.15zm.15-.29V11h.29v.29zm1 .29h.59a.15.15 0 00.15-.15v-.59a.15.15 0 00-.15-.15h-.59a.15.15 0 00-.15.15v.59a.15.15 0 00.15.15zm.15-.29V11h.29v.29z"/><path class="cls-2" d="M12 16.88v-.59a.15.15 0 00-.15-.15h-.59a.15.15 0 00-.15.15v.59a1.76 1.76 0 001.76 1.76h2.64a1.76 1.76 0 001.76-1.76v-.59a.15.15 0 00-.15-.15h-.59a.15.15 0 00-.15.15v.59a.88.88 0 01-.88.88h-2.6a.88.88 0 01-.9-.88zm5-.44v.44a1.47 1.47 0 01-1.47 1.47H12.9a1.47 1.47 0 01-1.47-1.46v-.44h.29v.44A1.17 1.17 0 0012.9 18h2.64a1.17 1.17 0 001.17-1.17v-.44z"/></g></g></svg>