<svg xmlns="http://www.w3.org/2000/svg" viewBox="0 0 791.41 147.29"><defs><style>.cls-1{fill:#040706;}</style></defs><title>logo-new</title><g id="Слой_2" data-name="Слой 2"><g id="Layer_1" data-name="Layer 1"><path class="cls-1" d="M41.81,106.72V79.9H14.7v26.82H0V39.9H14.7V66.34H41.81V39.9h14.7v66.82Z"/><path class="cls-1" d="M133.74,106.72l-6.11-15H99.38l-6.11,15h-15l28.64-67.3h13.56l28.64,67.3ZM113.51,57.08l-8.88,21.67h17.76Z"/><path class="cls-1" d="M195.6,107.2h-13l-27-67.3h16.23L189.3,87,206.77,39.9h15.85Z"/><path class="cls-1" d="M244.39,106.72V39.9h50.4V53H259V66.53h31.5V79.61H259v14h36.28v13.08Z"/><path class="cls-1" d="M551.51,106.72,537.19,85.34H525.64v21.38h-14.7V39.9h30.55c15.75,0,25.2,8.31,25.2,22.05v.19c0,10.79-5.82,17.57-14.32,20.72l16.32,23.87Zm.29-44c0-6.3-4.39-9.55-11.55-9.55H525.64V72.35h14.89c7.16,0,11.26-3.82,11.26-9.45Z"/><path class="cls-1" d="M592.37,106.72V39.9h50.4V53H607V66.53h31.5V79.61H607v14h36.28v13.08Z"/><path class="cls-1" d="M692.51,107.68A42.52,42.52,0,0,1,664.16,97l8.69-10.41c6,5,12.31,8.11,20,8.11,6,0,9.64-2.39,9.64-6.3V88.2c0-3.72-2.29-5.63-13.46-8.5-13.46-3.44-22.15-7.16-22.15-20.43v-.19c0-12.12,9.74-20.14,23.39-20.14A38.68,38.68,0,0,1,715,47.44L707.4,58.51c-5.92-4.1-11.74-6.59-17.37-6.59s-8.59,2.58-8.59,5.82v.19c0,4.39,2.86,5.82,14.41,8.78,13.56,3.53,21.19,8.4,21.19,20V87C717,100.23,706.93,107.68,692.51,107.68Z"/><path class="cls-1" d="M771.08,53.45v53.27h-14.7V53.45H736V39.9h55.37V53.45Z"/><path class="cls-1" d="M409,0H395.43L366.8,67.29h15L402.21,58l20,9.31h15.37Zm-7,45.69-14,6.43,5.18-12.8L402,17.66l8.88,21.67,5.22,12.85Z"/><polygon class="cls-1" points="422.64 80 411.28 107.97 402.4 129.63 393.52 107.97 382.17 80 366.8 80 395.43 147.29 408.99 147.29 437.62 80 422.64 80"/></g></g></svg>