<svg xmlns="http://www.w3.org/2000/svg" viewBox="0 0 479 110"><path fill="none" d="M0 0h479v110H0z"/><path d="M216.4 67.1v-15c0-5.7-3.6-9.5-9.4-9.5-3.4-.2-6.6 1.4-8.4 4.3-1.7-2.8-4.7-4.4-7.9-4.3-2.8-.1-5.5 1.2-7 3.6v-3h-5.2v24h5.3V53.8c0-4.2 2.3-6.4 5.9-6.4s5.2 2.3 5.2 6.3V67h5.2V53.8c0-4.2 2.4-6.4 5.9-6.4s5.3 2.3 5.3 6.3V67h5.1zm77.8-23.9h-8.5v-7.3h-5.3v7.3h-4.9V48h4.9v10.9c0 5.6 2.1 8.9 8.3 8.9 2.3 0 4.6-.6 6.5-1.8l-1.5-4.5c-1.4.8-3 1.3-4.6 1.3-2.6 0-3.5-1.6-3.5-4V47.9h8.5l.1-4.7zm44.4-.6c-2.6-.1-5 1.3-6.3 3.5v-2.9h-5.2v23.9h5.2V53.7c0-4 1.7-6.2 5.1-6.2 1.1 0 2.2.2 3.3.6l1.6-4.9c-1.1-.4-2.4-.6-3.7-.6zm-67.1 2.5c-2.9-1.8-6.3-2.6-9.8-2.5-6.1 0-10 2.9-10 7.7 0 3.9 2.9 6.3 8.3 7.1l2.5.3c2.9.4 4.2 1.2 4.2 2.5 0 1.8-1.9 2.9-5.5 2.9-2.9.1-5.7-.8-8-2.5l-2.4 4c3 2.1 6.7 3.2 10.4 3.1 6.9 0 10.9-3.3 10.9-7.8 0-4.2-3.2-6.4-8.4-7.2l-2.5-.3c-2.3-.3-4.1-.8-4.1-2.3 0-1.8 1.7-2.8 4.6-2.8 2.6 0 5.2.7 7.5 2l2.3-4.2zM411 42.6c-2.6-.1-5 1.3-6.3 3.5v-2.9h-5.2v23.9h5.2V53.7c0-4 1.7-6.2 5.1-6.2 1.1 0 2.2.2 3.3.6l1.6-4.9c-1.2-.4-2.4-.6-3.7-.6zm-67.1 12.5c0 7.3 5.1 12.6 12.8 12.6 3.1.2 6.2-.9 8.6-2.9l-2.5-4.2c-1.8 1.4-4 2.1-6.3 2.2-4.2 0-7.2-3.1-7.2-7.7s3.1-7.6 7.2-7.7c2.3 0 4.5.8 6.3 2.2l2.5-4.2c-2.4-2-5.5-3-8.6-2.9-7.7.1-12.8 5.4-12.8 12.6zm48.8 0v-12h-5.2V46c-1.8-2.3-4.6-3.6-7.6-3.5-6.7 0-12 5.3-12 12.6s5.3 12.6 12 12.6c2.9.1 5.8-1.2 7.6-3.5v2.9h5.2v-12zm-19.4 0c0-4.2 2.8-7.7 7.3-7.7 4.3 0 7.2 3.3 7.2 7.7s-2.9 7.7-7.2 7.7c-4.5 0-7.3-3.5-7.3-7.7zm-62.8-12.5c-7 0-11.9 5.1-11.9 12.6 0 7.6 5.1 12.6 12.3 12.6 3.6.1 7.1-1.1 9.8-3.4l-2.5-3.9c-2 1.6-4.5 2.5-7 2.5-3.4 0-6.4-1.5-7.2-5.9h17.8c0-.7.1-1.3.1-2-.1-7.4-4.8-12.5-11.4-12.5zm-.1 4.6c3.4 0 5.5 2.1 6.1 5.8H304c.5-3.4 2.6-5.8 6.4-5.8zM441 55.1V33.6h-5.2v12.5c-1.8-2.3-4.6-3.6-7.6-3.5-6.7 0-12 5.3-12 12.6s5.3 12.6 12 12.6c2.9.1 5.8-1.2 7.6-3.5v2.9h5.2V55.1zm6.1 9.8c.2 0 .4 0 .6.1.2.1.3.2.5.3.1.1.3.3.3.5.2.4.2.8 0 1.2-.1.2-.2.3-.3.5-.1.1-.3.3-.5.3-.2.1-.4.1-.6.1-.6 0-1.2-.4-1.4-.9-.2-.4-.2-.8 0-1.2.2-.4.5-.7.8-.8.2-.1.4-.1.6-.1zm0 2.7c.2 0 .3 0 .5-.1.1-.1.3-.1.4-.3.5-.5.5-1.2 0-1.7-.1-.1-.2-.2-.4-.3-.1-.1-.3-.1-.5-.1s-.3 0-.5.1c-.6.3-.9 1-.6 1.6.1.1.1.3.2.4.1.1.2.2.4.3.2.1.3.1.5.1zm.1-1.9c.1 0 .3 0 .4.1.1.1.2.2.1.3 0 .1 0 .2-.1.3-.1.1-.2.1-.3.1l.5.5h-.4l-.4-.5h-.1v.5h-.3v-1.4l.6.1zm-.4.3v.4h.6l.1-.1c0-.1 0-.1-.1-.1h-.2l-.4-.2zm-25.2-10.9c0-4.2 2.8-7.7 7.3-7.7 4.3 0 7.2 3.3 7.2 7.7s-2.9 7.7-7.2 7.7c-4.5 0-7.3-3.5-7.3-7.7zm-175.9 0v-12h-5.2V46c-1.8-2.3-4.6-3.6-7.5-3.5-6.7 0-12 5.3-12 12.6s5.3 12.6 12 12.6c2.9.1 5.8-1.2 7.6-3.5v2.9h5.2l-.1-12zm-19.3 0c0-4.2 2.8-7.7 7.3-7.7 4.3 0 7.2 3.3 7.2 7.7s-2.9 7.7-7.2 7.7c-4.6 0-7.3-3.4-7.3-7.7z" fill="#231f20"/><path fill="#ff5f00" d="M80.5 26.7H112v56.6H80.5z"/><path d="M82.5 55c0-11 5.1-21.5 13.8-28.3-15.6-12.3-38.3-9.6-50.5 6.1S36.1 71 51.7 83.3c13.1 10.3 31.4 10.3 44.5 0C87.5 76.5 82.4 66 82.5 55z" fill="#eb001b"/><path d="M154.5 55c0 19.9-16.1 36-36 36-8.1 0-15.9-2.7-22.2-7.7 15.6-12.3 18.3-34.9 6.1-50.5-1.8-2.3-3.8-4.3-6.1-6.1 15.6-12.3 38.3-9.6 50.6 6.1 4.9 6.3 7.6 14.1 7.6 22.2zM151 77.3v-1.2h.5v-.2h-1.2v.2h.5v1.2h.2zm2.3 0v-1.4h-.3l-.4 1-.4-1h-.4v1.4h.2v-1.1l.4.9h.3l.4-.9v1.1h.2z" fill="#f79e1b"/></svg>