<svg xmlns="http://www.w3.org/2000/svg" viewBox="0 0 242.5 110"><path d="M84.8 80.5l15.6-51.3h13.9L98.7 80.5H84.8zm-6.2-51.3L66.1 50.9c-3.2 5.7-5 8.6-5.9 12.2H60c.2-4.6-.4-10.2-.5-13.3l-1.4-20.6H34.7l-.2 1.4c6 0 9.6 3 10.6 9.2l4.6 40.8H64l29.1-51.3H78.6v-.1zm108.1 51.3l-.4-7.6h-17.4l-3.6 7.7h-15.1l27.4-51.3h18.5l4.6 51.3h-14v-.1zm-1.6-30.3c-.2-3.8-.3-8.9 0-12.1h-.2c-.8 2.6-4.5 10.2-6.1 14l-5.2 11.3h12.2l-.7-13.2zM128.9 82c-9.8 0-16.3-3.1-21-5.9l6.6-10.1c4.2 2.3 7.5 5 15 5 2.4 0 4.8-.6 6.1-2.9 1.9-3.3-.4-5.1-5.9-8.2l-2.7-1.7c-8-5.5-11.5-10.7-7.7-19.8 2.4-5.8 8.8-10.3 19.4-10.3 7.3 0 14.1 3.1 18.1 6.2l-7.6 8.9c-3.9-3.1-7.1-4.7-10.8-4.7-2.9 0-5.2 1.1-5.9 2.7-1.4 2.9.5 4.8 4.7 7.4l3.2 2c9.8 6.2 12.1 12.6 9.7 18.7-4.4 10.4-12.6 12.7-21.2 12.7z" fill-rule="evenodd" clip-rule="evenodd" fill="#444a67"/></svg>